# xmcd
#
# Track frame offsets:
#	150
#	37297
#	65563
#	90593
#	117594
#	144595
#	167094
#	194094
#	226630
#	242469
#	264267
#	291830
#	323854
#
# Disc length: 4706 seconds
#
# Revision: 0
# Processed by: cddbd v1.5PL3 Copyright (c) Steve Scherf et al.
# Submitted via: audiograbber 1.83.01
#
DISCID=be12600d
DTITLE=Various Artist - Beautiful House. (Mixed By Dj Axl) (2004)
DYEAR=1900
DGENRE=
TTITLE0=Aquarian Dreams. - Love and Tears. (Original Club Mix)
TTITLE1=G-Club pres. Banda Sonora. - Pressure Cooker. (Guitara G Mix)
TTITLE2=Dj Chus and David Penn feat. Caterina. - Baila. (Mediterranean Vocal Mix)
TTITLE3=Dr. Kucho! - Belmondo Rulez 2.0. (Original Mix)
TTITLE4=Nuboy and Sebastian Gamboa. - Sweet Sonora. (Violin Dub)
TTITLE5=Santos. - Gonna Get To All.
TTITLE6=James Douglas. - Out Of Your Mind. (Original Instrumental Mix)
TTITLE7=Bass and Penn. - Happines. (Original Mix)
TTITLE8=Daisy Chain. - Can Somebody Help Me. (Original Kortezman Version)
TTITLE9=Gus Gus. - David. (Medicine 8 Rmx)
TTITLE10=Dino Lenny vs. The Housemartines. - Change The World. (West London Dee
TTITLE10=p Rmx)
TTITLE11=Wally Lopez and Dr. Kucho. - Shepherd Divine Street.
TTITLE12=Kid Alex. - Young Love. (Topless) (Original Club Mix)
EXTD=
EXTT0=
EXTT1=
EXTT2=
EXTT3=
EXTT4=
EXTT5=
EXTT6=
EXTT7=
EXTT8=
EXTT9=
EXTT10=
EXTT11=
EXTT12=
PLAYORDER=
